<svg width="48" height="48" xmlns="http://www.w3.org/2000/svg">
    <g fill="none" fill-rule="evenodd">
        <path d="M0 0h48v48H0z"/>
        <path d="M33.43 38.516c3.484 0 5.343-1.86 5.343-5.297V14.25c0-3.438-1.859-5.281-5.343-5.281H14.555c-3.47 0-5.328 1.844-5.328 5.281v18.969c0 3.453 1.859 5.297 5.328 5.297H33.43zm-.313-3.578H14.883c-1.36 0-2.078-.688-2.078-2.11V14.641c0-1.422.718-2.094 2.078-2.094h18.234c1.328 0 2.078.672 2.078 2.094v18.187c0 1.422-.75 2.11-2.078 2.11zm-13.5-12.72c.125 0 .266-.093.406-.171 1.141-.672 3.485-2.469 3.485-4.594 0-1.328-.922-2.281-2.14-2.281-.798 0-1.423.484-1.766 1.11-.344-.626-.954-1.11-1.782-1.11-1.187 0-2.11.953-2.11 2.281 0 2.125 2.345 3.828 3.485 4.594.14.094.297.172.422.172zm11.656 4.454c.579 0 1.016-.453 1.016-1.031 0-.547-.437-.985-1.016-.985h-14.53c-.61 0-1.032.438-1.032.985 0 .578.422 1.03 1.031 1.03h14.531zM27.57 31.64a.99.99 0 0 0 1.016-1c0-.578-.438-1.032-1.016-1.032H16.742c-.61 0-1.031.453-1.031 1.032 0 .562.422 1 1.031 1H27.57z" fill="#FFF" fill-rule="nonzero"/>
    </g>
</svg>
