<svg width="24" height="24" xmlns="http://www.w3.org/2000/svg">
    <g fill="none" fill-rule="evenodd">
        <path d="M0 0h24v24H0z"/>
        <path d="M7.64 6.32c3.116 0 5.641 2.543 5.641 5.68 0 3.136-2.525 5.679-5.64 5.679-3.115 0-5.641-2.543-5.641-5.68C2 8.863 4.525 6.32 7.64 6.32zm9.008.333c1.558 0 2.82 2.393 2.82 5.346h.001c0 2.953-1.263 5.347-2.82 5.347-1.558 0-2.82-2.394-2.82-5.347 0-2.952 1.262-5.346 2.82-5.346zm4.36.557c.548 0 .992 2.144.992 4.79 0 2.644-.444 4.79-.992 4.79s-.992-2.145-.992-4.79c0-2.646.444-4.79.992-4.79z" fill-opacity=".6" fill="#141029" fill-rule="nonzero"/>
    </g>
</svg>
