<svg width="20" height="20" xmlns="http://www.w3.org/2000/svg">
    <g fill="none" fill-rule="evenodd">
        <path d="M0 0h20v20H0z"/>
        <path d="M5.157 17.66c.964 0 2.912-.91 4.402-1.976 4.874.054 8.51-2.776 8.51-6.495 0-3.609-3.588-6.514-8.072-6.514-4.478 0-8.067 2.905-8.067 6.514 0 2.243 1.367 4.266 3.487 5.346-.28.513-.752 1.244-1.046 1.627-.493.656-.123 1.497.786 1.497zm.827-1.73c.314-.397.813-1.046 1.087-1.545.212-.397.116-.739-.321-.944-2.03-.963-3.22-2.502-3.22-4.252 0-2.713 2.87-4.921 6.467-4.921 3.602 0 6.473 2.208 6.473 4.921 0 2.707-2.87 4.915-6.473 4.915-.117 0-.288-.006-.5-.006-.293-.007-.512.075-.792.3-.814.609-2.051 1.402-2.646 1.641-.11.041-.15-.014-.075-.11z" fill-opacity=".4" fill="#141029" fill-rule="nonzero"/>
    </g>
</svg>
