<svg width="48" height="48" xmlns="http://www.w3.org/2000/svg">
    <g fill="none" fill-rule="evenodd">
        <path d="M0 0h48v48H0z"/>
        <path d="m39.398 29.219 3.938-5.485c.781-1.062.422-2.062-.86-2.062h-2.234c-.969-7.89-7.86-14.281-16.234-14.281-4.438 0-8.485 1.89-11.328 4.812-.89.813-.89 1.938-.25 2.61.656.718 1.718.843 2.703 0a12.374 12.374 0 0 1 8.875-3.75c6.437 0 11.594 4.687 12.531 10.609h-2.437c-1.25 0-1.625 1-.86 2.062l3.953 5.485c.61.86 1.578.86 2.203 0zm-15.39 10.843c4.469 0 8.515-1.89 11.36-4.812.874-.828.874-1.953.25-2.625-.673-.719-1.72-.828-2.72.016a12.33 12.33 0 0 1-8.89 3.75c-6.422 0-11.578-4.672-12.516-10.61h2.406c1.266 0 1.625-1 .86-2.047l-3.938-5.5c-.625-.859-1.593-.859-2.203 0L4.664 23.72c-.766 1.062-.422 2.062.86 2.062h2.265c.969 7.89 7.86 14.282 16.219 14.282z" fill="#FFF" fill-rule="nonzero"/>
    </g>
</svg>
