<svg width="201" height="40" xmlns="http://www.w3.org/2000/svg">
    <g fill="none" fill-rule="evenodd">
        <path d="M48 14h153v12H48z"/>
        <path d="M57.587 26v-8.784h5.718V14H48v3.216h5.742V26h3.845zm19.853 0 1.394-1.392v-9.216L77.44 14H64.9l-1.394 1.392v9.216L64.899 26H77.44zm-2.45-3.216h-7.64v-5.568h7.64v5.568zM83.6 26v-4.68L89.701 26h4.228v-1.224L87.491 20l6.44-4.776V14H89.7L83.6 18.68V14h-3.844v12h3.844zm24.658 0v-3H98.095v-1.824h9.49V18.68h-9.49V17h10.163v-3H94.251v10.608L95.644 26h12.614zm4.765 0v-7.608L118.886 26h4.925V14h-3.844v7.728L113.888 14h-4.709v12h3.844zm24.059 0v-3.216h-8.506V14h-3.844v12h12.35zm3.708 0 1.033-1.92h7.785L150.64 26h3.748v-1.416L147.998 14h-4.565l-6.391 10.584V26h3.748zm7.088-5.112h-4.325l2.162-3.984 2.163 3.984zM158.433 26v-7.608L164.296 26h4.925V14h-3.844v7.728L159.298 14h-4.709v12h3.844zm25.644 0 1.394-1.392V18.92L180.546 14h-10.404v12h13.935zm-2.45-3.216h-7.64v-5.568h4.78l2.86 2.856v2.712zM199.607 26 201 24.608v-3.792l-1.586-1.584-9.418-.864v-1.152h9.634V14h-12.085l-1.393 1.392v3.648l1.633 1.632 9.37.84v1.272h-11.003V26h13.454z" fill="#212429" fill-rule="nonzero"/>
        <g>
            <path d="M0 0h40v40H0z"/>
            <path d="M20 0c11.046 0 20 8.954 20 20s-8.954 20-20 20S0 31.046 0 20 8.954 0 20 0z" fill="#1D5BE6"/>
            <path d="M16.056 26v-8.784h5.712V14H6.48v3.216h5.736V26h3.84zm18.048 0v-3.216h-8.496V14h-3.84v12h12.336z" fill="#FFF" fill-rule="nonzero"/>
        </g>
    </g>
</svg>
