<svg width="48" height="48" xmlns="http://www.w3.org/2000/svg">
    <g fill="none" fill-rule="evenodd">
        <path d="M0 0h48v48H0z"/>
        <path d="M24.75 37.39c12.984 0 21.578-10.453 21.578-13.64 0-3.219-8.61-13.64-21.578-13.64-12.781 0-21.563 10.421-21.563 13.64 0 3.188 8.766 13.64 21.563 13.64zm0-3.5c-9.703 0-17.25-8-17.25-10.14 0-1.813 7.547-10.14 17.25-10.14 9.688 0 17.266 8.328 17.266 10.14 0 2.14-7.578 10.14-17.266 10.14zm.016-2.046c4.5 0 8.109-3.688 8.109-8.094 0-4.516-3.61-8.094-8.11-8.094-4.515 0-8.14 3.563-8.124 8.094.015 4.406 3.609 8.094 8.125 8.094zm-.016-5.563c-1.406 0-2.547-1.156-2.547-2.531a2.547 2.547 0 0 1 2.547-2.547 2.55 2.55 0 0 1 2.563 2.547c0 1.375-1.141 2.531-2.563 2.531z" fill="#FFF" fill-rule="nonzero"/>
    </g>
</svg>
